
<svg xmlns="http://www.w3.org/2000/svg" version="1.1" xmlns:xlink="http://www.w3.org/1999/xlink" preserveAspectRatio="none" x="0px" y="0px" width="1280px" height="720px" viewBox="0 0 1280 720">
<defs>
<g id="OTOM__0_Layer2_0_FILL">
<path fill="#6FB143" stroke="none" d="
M 478.95 239.4
L 480.15 215.35 426.05 243.7 405.2 196.7 383.05 219.7 323.95 186.05 333.4 152.7 295.65 163.45 315.6 36.25 262.45 84.4 180.5 109.3 221.6 128.3 213.45 142.7 200.2 127.35 168.8 186.1 85.05 183.4 100.65 199.15 32.35 195.2 53.6 211.3 10.5 210.35 47.5 240.95 70.6 295.35
Q 40.5849609375 322.6564453125 57.65 332.7 50.3314453125 336.2572265625 51.5 351.1 52.6791015625 365.9955078125 70.65 362.65 69.2263671875 373.9416015625 85.85 381.9 102.5265625 389.8560546875 114.15 379.05 129.1 388.4595703125 143.8 376.55
L 149 389.05 163.55 352.7 185.65 371.75 199.95 508.95 235.5 455.85 295.5 531.85 324.3 432.4 343.9 436.95 411.55 405.25 395.5 388.6 411.85 380.05 411.6 395 430.65 388
Q 436.480078125 406.8060546875 462.75 406.95 484.2166015625 425.5134765625 504.9 403.35 546.66484375 420.154296875 544.55 380.5 577.694921875 355.315625 541.15 335.15
L 588.5 309.55 495.1 293.5 523.15 217.15 478.95 239.4 Z"/>
</g>

<g id="OTOM__0_Layer1_0_FILL">
<path fill="#0E5A40" stroke="none" d="
M 139.25 345.85
L 146.6 345.75 81.75 308.45
Q 59.45 327.65 75.45 334.95 57.8 349.15 82.15 357.35 82.5 369.45 93.4 371 107.55 373.75 111.4 362.05 116.3 375.05 132.85 366.05 115.15 366.65 119.05 355.5 123.5 346.8 140.05 354.3 141.25 350.25 139.25 345.85
M 79.6 328.4
Q 79 327.3 79.35 326.25 79.65 325.3 81.35 324.5 83.85 323.55 87.75 323.75 90.3 323.75 92.6 324.9 95.2 326.35 95.75 328.65 96.15 329.85 95.8 331.15 95.45 332.4 94.5 333.15 90.9 334.65 85.5 332.75 80.8 331.1 79.6 328.4
M 74.45 344.8
Q 73.9 343.15 75.55 341.9 77.15 340.65 78.4 340.35 79.65 340.05 82.1 339.65 82.1 340.7 82.5 342.15 83.15 344.7 84.25 345.9 84.75 346.5 86.1 347.4 82.45 347.9 78.75 347.2 75 346.45 74.45 344.8
M 89.65 341.85
Q 89.05 340.15 90.3 338.95 91.55 337.75 93.85 338 96.15 338.2 97.35 338.55 98.55 338.85 99.35 340.2 100.1 341.55 99.75 343 99.35 344.4 97.85 344.8 96.35 345.15 94.65 344.95 92.85 344.75 91.55 344.15 90.2 343.5 89.65 341.85
M 105.15 343.1
Q 105.35 341 105.55 340.15 106 338.25 107.05 337 108.65 335.15 109.65 334.85 110.5 334.6 111.8 335.3 113.4 336.2 114.05 337.3 114.85 338.7 115.15 342.1 116.2 353.1 109 348.9 104.8 346.4 105.15 343.1
M 90.85 354.6
Q 92.4 347.15 98.65 348.3 103.8 349.2 103.25 355.75 102.2 363.85 95.95 363.7 89.3 362.35 90.85 354.6
M 212.8 112.05
L 240.6 121.85 215.65 164.3 205.6 149.95 178.4 197.6 204.75 165.3 209.65 174.2 205.95 182.6 199.7 178.2 186.4 199.9 204 189.65 185.9 207.25 198.95 201.3 185 213.7 215.5 200.6 263.4 135.9 278.75 169 299.75 68 269.15 100.65 212.8 112.05
M 455.1 386.9
Q 447.8 383.75 451.1 375
L 444.35 378.1
Q 442.7 394.9 452 397.7 460.75 400.5 467.8 390.5 468.55 408.4 482.8 406.8 494.95 405 500.3 386.75 514.9 403.55 526.5 398.75 538.15 393.85 533.55 382 528.9 370.1 525 367.75 541.9 367.75 543.3 358.35 544.15 352.3 534.45 346.7 523.25 340.45 520.15 340.85
L 494.75 351.8
Q 506.85 355.7 505.85 363.1 504.35 369.15 492.2 363.7 485.7 360.3 486.45 355.8
L 457.95 370.45
Q 466 374.35 464.2 382.15 462.35 390 455.1 386.9
M 484.75 391.9
Q 477.5 395.5 473.6 384.4 469.75 373.2 475.8 370.15 481.8 367.1 486.9 377.65 492 388.2 484.75 391.9
M 513.9 348.75
Q 516.1 345.45 523.15 348.95 530.25 352.5 528.25 356.25 526.25 359.9 519 356.05 511.7 352.1 513.9 348.75
M 520.45 386.25
Q 517.45 389.3 511.15 384.35 504.8 379.4 509.7 374.25 514.6 369.1 519 376.15 523.35 383.2 520.45 386.25
M 430 264.45
L 440.65 267.1 424.8 280.4 401.95 216 375.7 254.25 369.65 230.2 321.85 206.45 299.95 211.45 319.25 167.25 181.05 219.95 166 200.45 85.4 220.45 70.7 247.8 81.95 295.15 155.8 337.55 185.15 318.75 254.7 318.75 290.15 337.4 271.65 369.55 281.35 410.1 290.7 412.8 286.05 439.5 256.25 417.1 272.95 413.85 204.95 374.65 214.25 459.35 236.8 431.5 289.6 496.05 316.95 420.75 339.9 424.3 396.3 400.8 380.05 394.15 392.8 368.85 388 345.6 392.65 336.95 402.85 351.6 424.8 337.8 417.1 372.25 554.55 314.6 481 303.65 504 240.55 466.3 257.7 467.75 245.05 430 264.45 Z"/>
</g>

<g id="OTOM__0_Layer0_0_FILL">
<path fill="#ECDC00" stroke="none" d="
M 189.45 232.75
L 189.1 251.75 219.8 243.5 205 307.9 244.2 306.15 238.55 239.55 281.55 224.95 299.15 185.85 189.45 232.75
M 137.55 219.9
L 101.5 233.05 91.7 261.35 118.4 304.5 150.65 316.8 180.55 303.45 186.55 275.3 169.4 235 137.55 219.9
M 140.35 237.05
L 145.05 237.65 142.55 251.75 138.8 250.5 140.35 237.05
M 113.95 263.35
L 114.2 258.3 130.05 257.55 130.35 261.9 113.95 263.35
M 152.45 253.15
Q 153.9 254.25 154.8 256.35 155.75 258.4 155.55 260.15 155.4 261.95 154.2 262.5 153 263 151.5 261.9 150.1 260.9 149.15 258.85 148.25 256.75 148.4 254.9 148.65 253.15 149.85 252.65 151.05 252.1 152.45 253.15
M 130.2 266.65
Q 131.65 267.75 132.55 269.85 133.5 271.9 133.3 273.65 133.15 275.45 131.95 276 130.75 276.5 129.25 275.4 127.85 274.4 126.9 272.35 126 270.25 126.15 268.4 126.4 266.65 127.6 266.15 128.8 265.6 130.2 266.65
M 123.9 289.6
Q 118.92265625 287.8580078125 125.55 286.65 158.01796875 289.6064453125 164.7 262.45 167.9833984375 259.073046875 167.4 266.2 160.80078125 294.8853515625 123.9 289.6
M 382.25 370.35
L 376.3 341.6 398.7 292.55 407.35 333.8 443.3 309.85 431.2 356.2 517.45 317.2 465.75 319.65 483.65 258.6 421.4 297.6 399.3 240.3 341 330.5 314.45 335.7 291.25 369.5 296.05 398.15 303.2 375.3 301.75 398.6 310.25 380.5 307.8 401.65 316.7 390.35 315.75 405.5 330.05 394.75 323.1 407.55 335.6 394.25 328.8 409.85 352.2 395.2 332 413.25 334.15 414.4 367.3 399.1 382.25 370.35
M 330.05 345.8
L 358.1 343.95 364.25 363.15 353.55 384.7 336.45 389.25 319.25 379.15 317.9 363 330.05 345.8
M 356.05 363.9
L 350.85 350.35 333.6 352.05 324.8 363.35 325.85 374.5 338.4 381.55 349.25 377.3 356.05 363.9
M 344.35 358.2
L 345.8 363.05 342 369.8 336.6 371.5 334.75 365.95 338.4 360.35 344.35 358.2
M 363.9 274.9
L 358.2 241.7 318.65 221.45 278.3 233.4 260.2 277.15 268.7 306.75 310.9 324.35 338.05 315.6 363.9 274.9
M 343.5 261.85
L 332.9 291.35 311.5 299.85 287.7 289.35 283.5 268.7 296.6 244.6 329.5 235.35 343.5 261.85
M 326.25 282.45
L 333 264.05 322.8 246.7 302.15 252.1 292.5 268.1 295.55 282.35 312.85 289.6 326.25 282.45
M 317 258.5
L 319.6 264.5 315.75 273.85 309 276.85 305.75 269.95 309.6 262.15 317 258.5 Z"/>
</g>

<path id="OTOM__0_Layer2_0_1_STROKES" stroke="#6FB143" stroke-width="1" stroke-linejoin="miter" stroke-linecap="butt" stroke-miterlimit="3" fill="none" d="
M 411.55 405.25
L 343.9 436.95 324.3 432.4 295.5 531.85 235.5 455.85 199.95 508.95 185.65 371.75 163.55 352.7 149 389.05 143.8 376.55
Q 129.1 388.4595703125 114.15 379.05 102.5265625 389.8560546875 85.875 381.9 69.2263671875 373.9416015625 70.65 362.65 52.6791015625 365.9955078125 51.5 351.125 50.3314453125 336.2572265625 57.65 332.7 40.5849609375 322.6564453125 70.6 295.35
L 47.5 240.95 10.5 210.35 53.6 211.3 32.35 195.2 100.65 199.15 85.05 183.4 168.8 186.1 200.2 127.35 213.45 142.7 221.6 128.3 180.5 109.3 262.45 84.4 315.6 36.25 295.65 163.45 333.4 152.7 323.95 186.05 383.05 219.7 405.2 196.7 426.05 243.7 480.15 215.35 478.95 239.4 523.15 217.15 495.1 293.5 588.5 309.55 541.15 335.15
Q 577.694921875 355.315625 544.55 380.5 546.66484375 420.154296875 504.9 403.35 484.2166015625 425.5134765625 462.75 406.95 436.480078125 406.8060546875 430.65 388
L 411.6 395 411.85 380.05 395.5 388.6 411.55 405.25 Z"/>

<path id="OTOM__0_Layer1_0_1_STROKES" stroke="#0E5A40" stroke-width="1" stroke-linejoin="miter" stroke-linecap="butt" stroke-miterlimit="3" fill="none" d="
M 316.95 420.75
L 289.6 496.05 236.8 431.5 214.25 459.35 204.95 374.65 272.95 413.85 256.25 417.1 286.05 439.5 290.7 412.8 281.35 410.1 271.65 369.55 290.15 337.4 254.7 318.75 185.15 318.75 155.8 337.55 81.95 295.15 70.7 247.8 85.4 220.45 166 200.45 181.05 219.95 319.25 167.25 299.95 211.45 321.85 206.45 369.65 230.225 375.7 254.25 401.95 216 424.8 280.4 440.65 267.1 430 264.45 467.75 245.05 466.3 257.7 504 240.55 481 303.65 554.55 314.6 417.1 372.25 424.8 337.8 402.85 351.6 392.65 336.95 388 345.6 392.8 368.85 380.05 394.15 396.3 400.8 339.9 424.3 316.95 420.75 Z
M 475.8 370.15
Q 469.75 373.2 473.6 384.4 477.5 395.5 484.75 391.9 492 388.2 486.9 377.65 481.8 367.1 475.8 370.15 Z
M 520.15 340.85
L 494.75 351.8
Q 506.85 355.7 505.85 363.1 504.35 369.15 492.2 363.7 485.7 360.3 486.45 355.8
L 457.95 370.45
Q 466 374.35 464.2 382.15 462.35 390 455.1 386.9 447.8 383.75 451.1 375
L 444.35 378.1
Q 442.7 394.9 452 397.7 460.75 400.5 467.8 390.5 468.55 408.4 482.8 406.8 494.95 405 500.3 386.75 514.9 403.55 526.5 398.75 538.15 393.85 533.55 382 528.9 370.1 525 367.75 541.9 367.75 543.3 358.35 544.15 352.3 534.45 346.7 523.25 340.45 520.15 340.85 Z
M 528.25 356.25
Q 530.25 352.5 523.15 348.95 516.1 345.45 513.9 348.75 511.7 352.1 519 356.05 526.25 359.9 528.25 356.25 Z
M 520.45 386.25
Q 517.45 389.3 511.15 384.35 504.8 379.4 509.7 374.25 514.6 369.1 519 376.15 523.35 383.2 520.45 386.25 Z
M 215.5 200.6
L 185 213.7 198.95 201.3 185.9 207.25 204 189.65 186.4 199.9 199.7 178.2 205.95 182.6 209.65 174.2 204.75 165.3 178.4 197.6 205.6 149.95 215.65 164.3 240.6 121.85 212.8 112.05 269.15 100.65 299.75 68 278.75 169 263.4 135.9 215.5 200.6 Z
M 94.5 333.15
Q 95.45 332.4 95.8 331.15 96.15 329.85 95.75 328.65 95.2 326.35 92.6 324.9 90.3 323.75 87.75 323.75 83.85 323.55 81.35 324.5 79.65 325.3 79.35 326.25 79 327.3 79.6 328.4 80.8 331.1 85.5 332.75 90.9 334.65 94.5 333.15 Z
M 86.1 347.4
Q 84.75 346.5 84.25 345.9 83.15 344.7 82.5 342.15 82.1 340.7 82.1 339.65 79.65 340.05 78.4 340.35 77.15 340.65 75.55 341.9 73.9 343.15 74.45 344.8 75 346.45 78.75 347.2 82.45 347.9 86.1 347.4 Z
M 146.6 345.75
L 81.75 308.45
Q 59.45 327.65 75.45 334.95 57.8 349.15 82.15 357.35 82.5 369.45 93.4 371 107.55 373.75 111.4 362.05 116.3 375.05 132.85 366.05 115.15 366.65 119.05 355.5 123.5 346.8 140.05 354.3 141.25 350.25 139.25 345.85
L 146.6 345.75 Z
M 93.85 338
Q 91.55 337.75 90.3 338.95 89.05 340.15 89.65 341.85 90.2 343.5 91.55 344.15 92.85 344.75 94.65 344.95 96.35 345.15 97.85 344.8 99.35 344.4 99.75 343 100.1 341.55 99.35 340.2 98.55 338.85 97.35 338.55 96.15 338.2 93.85 338 Z
M 115.15 342.1
Q 114.85 338.7 114.05 337.3 113.4 336.2 111.8 335.3 110.5 334.6 109.65 334.85 108.65 335.15 107.05 337 106 338.25 105.55 340.15 105.35 341 105.15 343.1 104.8 346.4 109 348.9 116.2 353.1 115.15 342.1 Z
M 98.65 348.3
Q 103.8 349.2 103.25 355.75 102.2 363.85 95.95 363.7 89.3 362.35 90.85 354.6 92.4 347.15 98.65 348.3 Z"/>

<path id="OTOM__0_Layer0_0_1_STROKES" stroke="#ECDC00" stroke-width="1" stroke-linejoin="miter" stroke-linecap="butt" stroke-miterlimit="3" fill="none" d="
M 312.85 289.6
L 295.55 282.35 292.5 268.1 302.15 252.1 322.8 246.7 333 264.05 326.25 282.45 312.85 289.6 Z
M 343.5 261.85
L 329.5 235.35 296.6 244.6 283.5 268.7 287.7 289.35 311.5 299.85 332.9 291.35 343.5 261.85 Z
M 363.9 274.9
L 338.05 315.6 310.9 324.35 268.7 306.75 260.2 277.15 278.3 233.4 318.65 221.45 358.2 241.7 363.9 274.9 Z
M 364.25 363.15
L 358.1 343.95 330.05 345.8 317.9 363 319.25 379.15 336.45 389.25 353.55 384.7 364.25 363.15 Z
M 338.4 381.55
L 325.85 374.5 324.8 363.35 333.6 352.05 350.85 350.35 356.05 363.9 349.25 377.3 338.4 381.55 Z
M 345.8 363.05
L 342 369.8 336.6 371.5 334.75 365.95 338.4 360.35 344.35 358.2 345.8 363.05 Z
M 334.15 414.4
L 332 413.25 352.2 395.2 328.8 409.85 335.6 394.25 323.1 407.55 330.05 394.75 315.75 405.5 316.7 390.35 307.8 401.65 310.25 380.5 301.75 398.6 303.2 375.3 296.05 398.15 291.25 369.5 314.45 335.7 341 330.5 399.3 240.3 421.4 297.6 483.65 258.6 465.75 319.65 517.45 317.2 431.2 356.2 443.3 309.85 407.35 333.8 398.7 292.55 376.3 341.6 382.25 370.35 367.3 399.1 334.15 414.4 Z
M 142.55 251.75
L 138.8 250.5 140.35 237.05 145.05 237.65 142.55 251.75 Z
M 130.05 257.55
L 130.35 261.9 113.95 263.35 114.2 258.3 130.05 257.55 Z
M 154.8 256.35
Q 155.75 258.4 155.55 260.15 155.4 261.95 154.2 262.5 153 263 151.5 261.9 150.1 260.9 149.15 258.85 148.25 256.75 148.4 254.9 148.65 253.15 149.85 252.65 151.05 252.1 152.45 253.15 153.9 254.25 154.8 256.35 Z
M 132.55 269.85
Q 133.5 271.9 133.3 273.65 133.15 275.45 131.95 276 130.75 276.5 129.25 275.4 127.85 274.4 126.9 272.35 126 270.25 126.15 268.4 126.4 266.65 127.6 266.15 128.8 265.6 130.2 266.65 131.65 267.75 132.55 269.85 Z
M 167.4 266.2
Q 160.80078125 294.8853515625 123.9 289.6 118.92265625 287.8580078125 125.55 286.65 158.01796875 289.6064453125 164.7 262.45 167.9833984375 259.073046875 167.4 266.2 Z
M 186.55 275.3
L 180.55 303.45 150.65 316.8 118.4 304.5 91.7 261.35 101.5 233.05 137.55 219.9 169.4 235 186.55 275.3 Z
M 319.6 264.5
L 315.75 273.85 309 276.85 305.75 269.95 309.6 262.15 317 258.5 319.6 264.5 Z
M 244.2 306.15
L 205 307.9 219.8 243.5 189.1 251.75 189.45 232.75 299.15 185.85 281.55 224.95 238.55 239.55 244.2 306.15 Z"/>
</defs>

<g transform="matrix( 1, 0, 0, 1, 643,210) ">
<g transform="matrix( 1.3422088623046875, 0, 0, 1.3422088623046875, -411.15,-214) ">
<g transform="matrix( 1, 0, 0, 1, 0,0) ">
<use xlink:href="#OTOM__0_Layer2_0_FILL"/>

<use xlink:href="#OTOM__0_Layer2_0_1_STROKES"/>
</g>

<g transform="matrix( 1, 0, 0, 1, 0,0) ">
<use xlink:href="#OTOM__0_Layer1_0_FILL"/>

<use xlink:href="#OTOM__0_Layer1_0_1_STROKES"/>
</g>

<g transform="matrix( 1, 0, 0, 1, 0,0) ">
<use xlink:href="#OTOM__0_Layer0_0_FILL"/>

<use xlink:href="#OTOM__0_Layer0_0_1_STROKES"/>
</g>
</g>
</g>
</svg>
