<svg width="19" height="19" viewBox="0 0 19 19" fill="none" xmlns="http://www.w3.org/2000/svg">
<g clip-path="url(#clip0_150_122)">
<path d="M0.585487 18.4146C0.771104 18.6013 0.99181 18.7495 1.23491 18.8506C1.47801 18.9517 1.7387 19.0038 2.00199 19.0038C2.26528 19.0038 2.52597 18.9517 2.76907 18.8506C3.01217 18.7495 3.23287 18.6013 3.41849 18.4146L15.0078 6.82285V14.5853C15.0078 15.1156 15.2185 15.6242 15.5935 15.9992C15.9685 16.3742 16.4771 16.5849 17.0075 16.5849C17.5378 16.5849 18.0464 16.3742 18.4214 15.9992C18.7964 15.6242 19.0071 15.1156 19.0071 14.5853V2.00911C19.0067 1.94284 19.0027 1.87665 18.9953 1.8108C18.9953 1.78011 18.9953 1.75178 18.9835 1.72345C18.9717 1.69512 18.9835 1.65262 18.9669 1.61721C18.9504 1.5818 18.9528 1.55111 18.9433 1.51806C18.9339 1.48501 18.9292 1.45904 18.9197 1.42835C18.9103 1.39766 18.8985 1.3646 18.8867 1.33155C18.8749 1.2985 18.8654 1.27253 18.8536 1.2442C18.8418 1.21587 18.8277 1.18518 18.8135 1.15685L18.771 1.06714L18.7214 0.98451C18.7049 0.95618 18.6884 0.925489 18.6695 0.899519C18.6506 0.87355 18.627 0.840498 18.6057 0.812168L18.5538 0.741342C18.47 0.639839 18.3767 0.546557 18.2752 0.462764L18.2044 0.410827C18.1761 0.389579 18.1477 0.36597 18.117 0.347083L18.0297 0.292785C18.0038 0.275663 17.977 0.259902 17.9494 0.245567C17.9211 0.229041 17.8904 0.217237 17.8597 0.203072L17.7724 0.160577L17.6756 0.120443L17.5811 0.0850303L17.4891 0.0637836L17.3899 0.0378143C17.3569 0.0378143 17.3214 0.0378131 17.286 0.0236481L17.1987 0.00948364C17.1326 0.00595337 17.0664 0.00595337 17.0004 0.00948364H4.41476C3.88443 0.00948364 3.37581 0.220158 3.00081 0.595161C2.62581 0.970163 2.41513 1.47878 2.41513 2.00911C2.41576 2.53904 2.62671 3.04704 3.00165 3.42154C3.37658 3.79603 3.88484 4.00638 4.41476 4.00638H12.1748L0.585487 15.5981C0.213394 15.9723 0.00453281 16.4786 0.00453281 17.0063C0.00453281 17.534 0.213394 18.0403 0.585487 18.4146Z" fill="#698DF7"/>
</g>
<defs>
<clipPath id="clip0_150_122">
<rect width="19" height="19" fill="white"/>
</clipPath>
</defs>
</svg>
