<svg width="133" height="130" viewBox="0 0 133 130" fill="none" xmlns="http://www.w3.org/2000/svg">
<path d="M125.112 48.2323C111.242 48.2323 97.3717 48.2323 83.5014 48.2323C83.3709 48.2533 83.2375 48.2482 83.1089 48.2173C82.9804 48.1863 82.8593 48.1301 82.7526 48.052C82.6458 47.9739 82.5556 47.8753 82.4872 47.7621C82.4187 47.6488 82.3734 47.5231 82.3537 47.3921C78.696 36.3623 72.2866 17.018 68.8236 6.68713C68.6663 6.19492 68.3563 5.76582 67.9386 5.46237C67.5209 5.15891 67.0174 4.99694 66.5014 5.00004C65.9863 4.99733 65.4838 5.15956 65.0673 5.46307C64.6507 5.76657 64.3419 6.19545 64.186 6.68713C60.743 17.018 54.3068 36.3623 50.6558 47.3921C50.6353 47.5233 50.5892 47.6492 50.5201 47.7625C50.451 47.8758 50.3602 47.9744 50.2529 48.0524C50.1456 48.1305 50.024 48.1866 49.8951 48.2174C49.7661 48.2483 49.6323 48.2534 49.5014 48.2323C35.6312 48.2323 21.7609 48.2323 7.89069 48.2323C7.2864 48.2327 6.6974 48.4226 6.20641 48.7754C5.71541 49.1282 5.34706 49.6262 5.15308 50.1993C4.9591 50.7725 4.94924 51.3921 5.12486 51.9712C5.30048 52.5502 5.65276 53.0597 6.13226 53.428C14.9578 60.2032 30.3873 72.006 39.6893 78.8081C39.9469 78.9441 40.1407 79.1763 40.2286 79.4543C40.3165 79.7323 40.2915 80.0338 40.1591 80.2935C36.8034 90.8395 31.1793 108.577 27.7027 119.553C26.0048 124.931 28.3202 126.584 32.8571 123.257L32.9376 123.203L61.8839 101.943C63.2262 100.962 64.5685 99.9941 65.9108 98.9859C66.0748 98.8347 66.2857 98.7446 66.5081 98.7304C66.7305 98.7446 66.9414 98.8347 67.1054 98.9859C68.4477 99.9941 69.79 100.962 71.1323 101.943L100.085 123.203L100.159 123.257C104.696 126.618 107.018 124.917 105.313 119.553C101.837 108.577 96.2128 90.8395 92.8571 80.2935C92.7265 80.0335 92.7025 79.7326 92.7902 79.4551C92.878 79.1776 93.0706 78.9454 93.3269 78.8081C102.622 72.006 118.058 60.2032 126.884 53.428C127.364 53.059 127.717 52.5483 127.892 51.9679C128.068 51.3876 128.057 50.7667 127.861 50.1929C127.665 49.6191 127.295 49.1213 126.802 48.7695C126.309 48.4178 125.718 48.2299 125.112 48.2323Z" fill="#F2F3EF" stroke="#698DF7" stroke-width="9" stroke-miterlimit="10"/>
<path d="M94.8034 59.7796C88.092 59.7796 81.403 59.7796 74.7363 59.7796C74.6082 59.7989 74.4777 59.7666 74.3733 59.6898C74.2689 59.613 74.1991 59.4978 74.1793 59.3696C72.4142 54.0462 69.3068 44.7102 67.6491 39.7296C67.5732 39.4921 67.4236 39.285 67.222 39.1387C67.0203 38.9924 66.7773 38.9145 66.5283 38.9163C66.2793 38.9145 66.0362 38.9924 65.8346 39.1387C65.633 39.285 65.4833 39.4921 65.4074 39.7296C63.7497 44.7102 60.6424 54.0462 58.8773 59.3696C58.8682 59.4328 58.8468 59.4936 58.8142 59.5485C58.7816 59.6034 58.7385 59.6513 58.6873 59.6894C58.6362 59.7275 58.578 59.7551 58.5161 59.7706C58.4543 59.786 58.39 59.7891 58.3269 59.7796C51.6155 59.7796 44.9265 59.7796 38.2598 59.7796C37.968 59.7791 37.6833 59.8703 37.4458 60.0402C37.2083 60.2102 37.03 60.4504 36.9359 60.7271C36.8419 61.0038 36.8368 61.303 36.9214 61.5828C37.0059 61.8626 37.1759 62.1088 37.4075 62.2867C41.6692 65.5601 49.1122 71.2531 53.6021 74.5399C53.6637 74.5718 53.7183 74.6156 53.7628 74.6688C53.8074 74.722 53.8409 74.7835 53.8615 74.8498C53.8821 74.916 53.8894 74.9858 53.8829 75.0549C53.8763 75.124 53.8562 75.1911 53.8236 75.2524C52.2061 80.3472 49.4947 88.9036 47.8169 94.2001C46.9914 96.7946 48.1122 97.5944 50.3001 95.988H50.3404L64.3135 85.6975C64.9846 85.2202 65.6088 84.7565 66.2397 84.2658C66.3204 84.1954 66.4216 84.153 66.5283 84.1448C66.6352 84.152 66.7367 84.1945 66.8169 84.2658C67.488 84.7565 68.1055 85.2202 68.7498 85.6975L82.7162 95.9544H82.7565C84.9444 97.5608 86.0652 96.7609 85.2464 94.1665C83.5685 88.87 80.8504 80.3136 79.2061 75.2188C79.1425 75.0939 79.1309 74.9489 79.1736 74.8154C79.2164 74.682 79.3101 74.5708 79.4343 74.5063C83.9175 71.2195 91.3672 65.5264 95.6222 62.2531C95.8389 62.0736 95.9965 61.8327 96.0741 61.5619C96.1518 61.2912 96.146 61.0033 96.0575 60.7359C95.9689 60.4686 95.8019 60.2342 95.5781 60.0636C95.3543 59.8929 95.0843 59.794 94.8034 59.7796Z" fill="#698DF7"/>
</svg>
